<?xml version="1.0" encoding="utf-8"?>
<!-- Generator: Adobe Illustrator 27.9.0, SVG Export Plug-In . SVG Version: 6.00 Build 0)  -->
<svg version="1.1" id="Capa_1" xmlns="http://www.w3.org/2000/svg" xmlns:xlink="http://www.w3.org/1999/xlink" x="0px" y="0px"
	 viewBox="0 0 50 50" style="enable-background:new 0 0 50 50;" xml:space="preserve">
<style type="text/css">
	.st0{fill:#2A7BE4;}
</style>
<path class="st0" d="M43.8,1c0,0-3.7,0.1-8.1,1.2S26,5.5,23,10c0,0,0,0,0,0.1l-5,9c-0.5,0-1.1-0.1-1.6-0.1c-3.7,0-8.8,0.9-13,6.4
	c-0.3,0.4-0.2,1.1,0.2,1.4C3.6,26.9,3.8,27,4,27h1.8c2.3,0,4.8,0.4,6.9,1.4l-0.3,0.5c-0.8,1.4-0.3,3.1,1,4l1.3,0.8
	c-0.4,0.4-0.7,0.8-1,1.3c-1.2,1.7-2.1,4.4-2.5,6.9c-0.2,1.3-0.2,2.5,0,3.7c0.2,1.1,0.7,2.2,1.6,2.8c0.9,0.6,2.1,0.7,3.2,0.5
	s2.2-0.7,3.3-1.4c2.2-1.3,4.2-3.2,5.4-5c0,0,0,0,0,0c0.3-0.5,0.6-1,0.8-1.6l0.9,0.6c0,0,0,0,0,0c1.2,0.8,2.7,0.6,3.7-0.3
	c2.2,2.4,3.3,5.3,4,7.1c0.2,0.5,0.8,0.8,1.3,0.6c0.2-0.1,0.3-0.2,0.4-0.3c2.5-3.3,3.2-6.3,3.2-9.6c0-2.7-0.9-4.9-1.7-6.5l6.8-8.3
	c0,0,0,0,0.1-0.1C46.4,20.9,47,17,47,13.5c0-6.3-2.2-11.9-2.2-11.9C44.6,1.2,44.2,1,43.8,1z M43.1,3.1C43.5,4,45,8.2,45,13.5
	c0,3.3-0.6,6.7-2.5,9.5L28.9,39.6c0,0,0,0,0,0c-0.3,0.4-0.9,0.5-1.4,0.2l-13-8.6c0,0,0,0,0,0c-0.5-0.3-0.6-0.8-0.3-1.3c0,0,0,0,0,0
	l10.5-18.7c2.6-3.9,7.4-6,11.6-7C39.7,3.2,42.2,3.1,43.1,3.1z M33.5,11c-3.6,0-6.5,2.9-6.5,6.5s2.9,6.5,6.5,6.5s6.5-2.9,6.5-6.5
	S37.1,11,33.5,11z M33.5,13c2.5,0,4.5,2,4.5,4.5S36,22,33.5,22S29,20,29,17.5S31,13,33.5,13z M16.2,21c0.2,0,0.4,0,0.6,0l-3.2,5.6
	c-2.3-1.1-4.9-1.5-7.3-1.6C9.7,21.6,13.3,21,16.2,21z M35.9,34.2c0.6,1.4,1.1,3,1.1,4.8c0,2.4-0.6,4.5-1.9,6.7c-0.7-1.8-1.8-4-3.7-6
	L35.9,34.2z M17,35.2l6.3,4.2c-0.7,0.9-2,2-3.4,2.8c-0.8,0.4-1.5,0.7-2.1,0.8c-0.6,0.1-1,0-1.3-0.2c-0.3-0.2-0.5-0.6-0.7-1.2
	c-0.1-0.6-0.2-1.4-0.1-2.3C15.8,37.9,16.4,36.3,17,35.2z M13.6,40c0,0.7,0,1.4,0.2,2.1c0.2,0.9,0.7,1.8,1.5,2.4c0,0,0,0,0,0
	c0.8,0.6,1.8,0.6,2.7,0.5c0.8-0.1,1.7-0.4,2.5-0.8c-0.7,0.6-1.5,1.2-2.2,1.7c-1,0.6-1.9,1-2.7,1.2c-0.8,0.2-1.3,0.1-1.7-0.2
	c-0.4-0.2-0.6-0.7-0.8-1.6c-0.1-0.8-0.1-1.9,0-3C13.2,41.5,13.4,40.7,13.6,40z"/>
</svg>
