<?xml version="1.0" encoding="utf-8"?>
<!-- Generator: Adobe Illustrator 27.9.0, SVG Export Plug-In . SVG Version: 6.00 Build 0)  -->
<svg version="1.1" id="icon-0" xmlns:svgjs="http://svgjs.dev/svgjs"
	 xmlns="http://www.w3.org/2000/svg" xmlns:xlink="http://www.w3.org/1999/xlink" x="0px" y="0px" viewBox="0 0 1000 161"
	 style="enable-background:new 0 0 1000 161;" xml:space="preserve">
<style type="text/css">
	.st0{fill:#FFFFFF;}
	.st1{display:none;fill:none;}
</style>
<g transform="matrix(1,0,0,1,-0.6060589452915224,-0.3308003950435676)">
	<g id="tight-bounds" transform="matrix(1,0,0,1,0.23999946334396327,0.1314982936819149)">
		<g>
			<g>
				<path id="o-0" class="st0" d="M790.2,10.8L790.2,10.8c2.9,0,5.2,4.5,5.2,9.9V140c0,5.5-2.3,9.9-5.2,9.9l0,0
					c-2.9,0-5.2-4.5-5.2-9.9V20.7C785,15.2,787.3,10.8,790.2,10.8z"/>
			</g>
			<g transform="matrix(1,0,0,1,0,11.603786317346295)">
				<g id="textblocktransform">
					<g>
						<g transform="matrix(1,0,0,1,0,0)">
							<path id="text-0" class="st0" d="M10,13.3l30.5,102.8L70.9,13.3h7.7L45.4,125h-9.7L2.3,13.3H10z M111.3,13.3L148.5,125h-7.7
								l-13.7-40.9H88.8L75.4,125h-7.5l36.7-111.7H111.3z M91,77.1h34.2L107.9,25L91,77.1z M169.7,13.3v105.2h50.4v6.5h-57.6V13.3
								H169.7z M230.3,44.1c0-11,3-19.3,9-24.9c6-5.6,14.3-8.5,24.8-8.5l0,0c10.5,0,18.7,3,24.5,8.9c5.8,6,8.7,14.1,8.7,24.6l0,0
								v51.2c0,10.7-3.3,18.6-9.8,23.7c-6.6,5.1-14.4,7.6-23.6,7.6l0,0c-5.7,0-11.2-1-16.3-3.1c-5.1-2.1-9.3-5.4-12.5-10.1
								c-3.3-4.7-4.9-10.7-4.9-18l0,0V44.1z M237.5,95.5c0,8.1,2.5,14.2,7.6,18.3c5,4.1,11.3,6.2,18.7,6.2l0,0c7.7,0,14-2,19-6
								c5-4,7.5-10.2,7.5-18.6l0,0V43c0-8.2-2.4-14.5-7.1-18.8c-4.7-4.4-11.2-6.5-19.4-6.5l0,0c-8.2,0-14.6,2.2-19.3,6.5
								c-4.7,4.4-7,10.6-7,18.8l0,0V95.5z M359.3,13.3c10.2,0,17.8,3.1,22.8,9.3c5,6.2,7.5,14.5,7.5,24.9l0,0
								c0,7.4-1.1,14.3-3.3,20.5c-2.2,6.2-6.5,10.8-13,13.7l0,0l16.4,43.4h-7.3l-16-41.2c-2.3,0.2-4.3,0.3-5.7,0.3l0,0h-33.2V125
								h-7.2V13.3H359.3z M327.5,77.1h32.6c14.9,0,22.3-9.9,22.3-29.7l0,0c0-8.9-2-15.7-6-20.4c-4-4.6-9.6-6.9-16.9-6.9l0,0h-32.1
								V77.1z M443.2,13.3L480.4,125h-7.7L459,84.2h-38.3L407.3,125h-7.5l36.7-111.7H443.2z M422.9,77.1h34.2L439.9,25L422.9,77.1z
								 M533.4,13.3c10.2,0,17.8,3.1,22.8,9.3c5,6.2,7.5,14.5,7.5,24.9l0,0c0,7.4-1.1,14.3-3.3,20.5c-2.2,6.2-6.5,10.8-13,13.7l0,0
								l16.4,43.4h-7.3l-16-41.2c-2.3,0.2-4.3,0.3-5.7,0.3l0,0h-33.2V125h-7.2V13.3H533.4z M501.6,77.1h32.6
								c14.9,0,22.3-9.9,22.3-29.7l0,0c0-8.9-2-15.7-6-20.4c-4-4.6-9.6-6.9-16.8-6.9l0,0h-32.1V77.1z M579,116.2
								c1.2,0,2.2,0.4,3.1,1.3c0.9,0.9,1.3,1.9,1.3,3l0,0c0,1.2-0.4,2.2-1.3,3.1c-0.9,0.9-2,1.4-3.1,1.4l0,0c-1.2,0-2.2-0.5-3-1.4
								c-0.9-0.9-1.3-1.9-1.3-3.1l0,0c0-1.2,0.4-2.2,1.3-3C576.8,116.7,577.8,116.2,579,116.2L579,116.2z M636.9,13.3L674.1,125
								h-7.7l-13.7-40.9h-38.3L601,125h-7.5l36.7-111.7H636.9z M616.6,77.1h34.2L633.6,25L616.6,77.1z M727.1,13.3
								c10.2,0,17.8,3.1,22.8,9.3c5,6.2,7.5,14.5,7.5,24.9l0,0c0,7.4-1.1,14.3-3.3,20.5c-2.2,6.2-6.5,10.8-13,13.7l0,0l16.4,43.4
								h-7.3l-16-41.2c-2.3,0.2-4.3,0.3-5.7,0.3l0,0h-33.2V125h-7.2V13.3H727.1z M695.3,77.1h32.6c14.9,0,22.3-9.9,22.3-29.7l0,0
								c0-8.9-2-15.7-6-20.4c-4-4.6-9.6-6.9-16.8-6.9l0,0h-32.1V77.1z"/>
						</g>
					</g>
				</g>
			</g>
			<g transform="matrix(1,0,0,1,429.6833106937877,0)">
				<g>
					<g>
						<path class="st0" d="M550.1,72.4c-1.8,0-3.2,1.4-3.2,3.2v78.5H438.7c-1.8,0-3.2,1.4-3.2,3.2c0,1.8,1.4,3.2,3.2,3.2h111.4
							c1.8,0,3.2-1.4,3.2-3.2V75.6C553.3,73.8,551.9,72.4,550.1,72.4z"/>
						<path class="st0" d="M449.9,106.7c0-15.6-12.7-28.4-28.4-28.4c-15.6,0-28.4,12.7-28.4,28.4c0,14.3,10.6,26.1,24.4,28.1v22.4
							c0,1.8,1.4,3.2,3.2,3.2c1.8,0,3.2-1.4,3.2-3.2V135C438.5,133.7,449.9,121.6,449.9,106.7z M399.6,106.7c0-12.1,9.9-22,22-22
							s22,9.9,22,22c0,11.3-8.6,20.6-19.5,21.8v-18c0-1.8-1.4-3.2-3.2-3.2c-1.8,0-3.2,1.4-3.2,3.2v17.8
							C407.3,126.5,399.6,117.5,399.6,106.7z"/>
						<path class="st0" d="M479.5,110c0-1.8-1.4-3.2-3.2-3.2c-1.8,0-3.2,1.4-3.2,3.2c0,9.7,6.9,17.8,16.1,19.7v5
							c0,1.8,1.4,3.2,3.2,3.2c1.8,0,3.2-1.4,3.2-3.2v-4.7c10-1.2,17.7-9.7,17.7-20c0-10.3-7.8-18.8-17.7-20V62.7
							c6.4,1.1,11.3,6.7,11.3,13.5c0,1.8,1.4,3.2,3.2,3.2s3.2-1.4,3.2-3.2c0-10.3-7.8-18.8-17.7-20v-5.8c0-1.8-1.4-3.2-3.2-3.2
							c-1.8,0-3.2,1.4-3.2,3.2v6.1c-9.2,1.9-16.1,10-16.1,19.7S480,94,489.1,95.8V123C483.6,121.3,479.5,116.1,479.5,110z
							 M506.9,110c0,6.7-4.9,12.3-11.3,13.5V96.5C502,97.6,506.9,103.2,506.9,110z M479.5,76.1c0-6.1,4.1-11.3,9.7-13v26.1
							C483.6,87.4,479.5,82.3,479.5,76.1z"/>
						<path class="st0" d="M567.3,70.8L546,18.5c-0.5-1.2-1.7-2-3-2h-15.9V3.4c0-1.8-1.4-3.2-3.2-3.2h-12.3c-1.8,0-3.2,1.4-3.2,3.2
							v13.1h-62.6c-1.3,0-2.5,0.8-3,2l-19.5,47.7c-0.7,1.6,0.1,3.5,1.8,4.2c1.6,0.7,3.5-0.1,4.2-1.8L448,23h60.5v9.5
							c0,1.8,1.4,3.2,3.2,3.2h12.3c1.8,0,3.2-1.4,3.2-3.2V23h13.7l20.5,50.2c0.5,1.2,1.7,2,3,2c0.4,0,0.8-0.1,1.2-0.2
							C567.2,74.3,568,72.4,567.3,70.8z M520.7,29.3h-5.8V6.6h5.8V29.3z"/>
					</g>
				</g>
			</g>
		</g>
		<rect x="2.3" y="0.2" class="st1" width="995" height="160.3"/>
	</g>
</g>
</svg>
