<?xml version="1.0" standalone="no"?>
<!DOCTYPE svg PUBLIC "-//W3C//DTD SVG 1.1//EN" "http://www.w3.org/Graphics/SVG/1.1/DTD/svg11.dtd">
<svg xmlns="http://www.w3.org/2000/svg" xmlns:xlink="http://www.w3.org/1999/xlink" xmlns:svgjs="http://svgjs.dev/svgjs" version="1.1" width="1000" height="161" viewBox="0 0 1000 161"><g transform="matrix(1,0,0,1,-0.6060589452915224,-0.3308003950435676)"><svg xmlns="http://www.w3.org/2000/svg" xmlns:xlink="http://www.w3.org/1999/xlink" viewBox="0 0 396 64" data-background-color="#ffffff" preserveAspectRatio="xMidYMid meet" height="161" width="1000"><g id="tight-bounds" transform="matrix(1,0,0,1,0.23999946334396327,0.1314982936819149)"><svg viewBox="0 0 395.52 63.7369990962125" height="63.7369990962125" width="395.52"><g><svg viewBox="0 0 521.0162103246153 83.960380578914" height="63.7369990962125" width="395.52"><g><rect width="5.478750917307686" height="72.90336953306569" x="409.86227988824" y="5.528505522924156" fill="#4b91f1" opacity="1" stroke-width="0" stroke="transparent" fill-opacity="1" class="rect-o-0" data-fill-palette-color="primary" rx="1%" id="o-0" data-palette-color="#4b91f1"/></g><g transform="matrix(1,0,0,1,0,11.603786317346295)"><svg viewBox="0 0 395.52 60.75280794422141" height="60.75280794422141" width="395.52"><g id="textblocktransform"><svg viewBox="0 0 395.52 60.75280794422141" height="60.75280794422141" width="395.52" id="textblock"><g><svg viewBox="0 0 395.52 60.75280794422141" height="60.75280794422141" width="395.52"><g transform="matrix(1,0,0,1,0,0)"><svg width="395.52" viewBox="3.9000000953674316 -35.79999923706055 236.6300048828125 36.349998474121094" height="60.75280794422141" data-palette-color="#4b91f1"><path d="M6.3-35L15.85-2.8 25.4-35 27.8-35 17.4 0 14.35 0 3.9-35 6.3-35ZM38.05-35L49.7 0 47.3 0 43-12.8 31-12.8 26.8 0 24.45 0 35.95-35 38.05-35ZM31.7-15L42.4-15 37-31.35 31.7-15ZM56.35-35L56.35-2.05 72.15-2.05 72.15 0 54.1 0 54.1-35 56.35-35ZM75.34-25.35Q75.34-30.5 78.17-33.15 80.99-35.8 85.94-35.8L85.94-35.8Q90.89-35.8 93.62-33 96.34-30.2 96.34-25.3L96.34-25.3 96.34-9.25Q96.34-4.2 93.27-1.83 90.19 0.55 85.89 0.55L85.89 0.55Q83.19 0.55 80.79-0.43 78.39-1.4 76.87-3.6 75.34-5.8 75.34-9.25L75.34-9.25 75.34-25.35ZM77.59-9.25Q77.59-5.45 79.97-3.53 82.34-1.6 85.84-1.6L85.84-1.6Q89.44-1.6 91.79-3.48 94.14-5.35 94.14-9.3L94.14-9.3 94.14-25.7Q94.14-29.55 91.92-31.6 89.69-33.65 85.84-33.65L85.84-33.65Q81.99-33.65 79.79-31.6 77.59-29.55 77.59-25.7L77.59-25.7 77.59-9.25ZM115.74-35Q120.54-35 122.89-32.1 125.24-29.2 125.24-24.3L125.24-24.3Q125.24-20.8 124.22-17.88 123.19-14.95 120.14-13.6L120.14-13.6 125.29 0 122.99 0 117.99-12.9Q116.89-12.8 116.19-12.8L116.19-12.8 105.79-12.8 105.79 0 103.54 0 103.54-35 115.74-35ZM105.79-15L115.99-15Q122.99-15 122.99-24.3L122.99-24.3Q122.99-28.5 121.12-30.68 119.24-32.85 115.84-32.85L115.84-32.85 105.79-32.85 105.79-15ZM142.04-35L153.69 0 151.29 0 146.99-12.8 134.99-12.8 130.79 0 128.44 0 139.94-35 142.04-35ZM135.69-15L146.39-15 140.99-31.35 135.69-15ZM170.29-35Q175.09-35 177.44-32.1 179.79-29.2 179.79-24.3L179.79-24.3Q179.79-20.8 178.76-17.88 177.74-14.95 174.69-13.6L174.69-13.6 179.84 0 177.54 0 172.54-12.9Q171.44-12.8 170.74-12.8L170.74-12.8 160.34-12.8 160.34 0 158.09 0 158.09-35 170.29-35ZM160.34-15L170.54-15Q177.54-15 177.54-24.3L177.54-24.3Q177.54-28.5 175.66-30.68 173.79-32.85 170.39-32.85L170.39-32.85 160.34-32.85 160.34-15ZM184.58-2.75Q185.13-2.75 185.56-2.35 185.98-1.95 185.98-1.4L185.98-1.4Q185.98-0.85 185.56-0.43 185.13 0 184.58 0L184.58 0Q184.03 0 183.63-0.43 183.23-0.85 183.23-1.4L183.23-1.4Q183.23-1.95 183.63-2.35 184.03-2.75 184.58-2.75L184.58-2.75ZM202.73-35L214.38 0 211.98 0 207.68-12.8 195.68-12.8 191.48 0 189.13 0 200.63-35 202.73-35ZM196.38-15L207.08-15 201.68-31.35 196.38-15ZM230.98-35Q235.78-35 238.13-32.1 240.48-29.2 240.48-24.3L240.48-24.3Q240.48-20.8 239.45-17.88 238.43-14.95 235.38-13.6L235.38-13.6 240.53 0 238.23 0 233.23-12.9Q232.13-12.8 231.43-12.8L231.43-12.8 221.03-12.8 221.03 0 218.78 0 218.78-35 230.98-35ZM221.03-15L231.23-15Q238.23-15 238.23-24.3L238.23-24.3Q238.23-28.5 236.35-30.68 234.48-32.85 231.08-32.85L231.08-32.85 221.03-32.85 221.03-15Z" opacity="1" transform="matrix(1,0,0,1,0,0)" fill="#4b91f1" class="wordmark-text-0" data-fill-palette-color="primary" id="text-0"/></svg></g></svg></g></svg></g></svg></g><g transform="matrix(1,0,0,1,429.6833106937877,0)"><svg viewBox="0 0 91.33289963082755 83.960380578914" height="83.960380578914" width="91.33289963082755"><g><svg xmlns="http://www.w3.org/2000/svg" xmlns:xlink="http://www.w3.org/1999/xlink" version="1.1" x="0" y="0" viewBox="0 0 100.0001449584961 91.92799377441406" enable-background="new 0 0 100 91.928" xml:space="preserve" width="91.33289963082755" height="83.960380578914" class="icon-icon-0" data-fill-palette-color="accent" id="icon-0"><g fill="#4b91f1" data-fill-palette-color="accent"><path d="M90.006 41.393c-1.015 0-1.837 0.822-1.837 1.837v45.024H26.136c-1.014 0-1.837 0.822-1.837 1.837 0 1.015 0.822 1.837 1.837 1.837h63.871c1.015 0 1.837-0.822 1.837-1.837V43.23C91.843 42.216 91.021 41.393 90.006 41.393z" fill="#4b91f1" data-fill-palette-color="accent"/><path d="M32.537 61.082c0-8.971-7.298-16.269-16.269-16.269C7.298 44.813 0 52.111 0 61.082c0 8.2 6.104 14.983 14.002 16.091v12.832c0 1.015 0.822 1.837 1.837 1.837s1.837-0.822 1.837-1.837V77.279C25.989 76.561 32.537 69.578 32.537 61.082zM3.674 61.082c0-6.946 5.65-12.594 12.594-12.594s12.595 5.649 12.595 12.594c0 6.467-4.903 11.807-11.187 12.51V63.278c0-1.015-0.822-1.837-1.837-1.837s-1.837 0.822-1.837 1.837v10.183C8.137 72.39 3.674 67.252 3.674 61.082z" fill="#4b91f1" data-fill-palette-color="accent"/><path d="M49.493 62.932c0-1.015-0.822-1.837-1.837-1.837s-1.837 0.822-1.837 1.837c0 5.566 3.965 10.223 9.218 11.297v2.847c0 1.015 0.822 1.837 1.837 1.837 1.015 0 1.837-0.822 1.837-1.837v-2.701c5.718-0.677 10.171-5.547 10.171-11.443 0-5.898-4.452-10.768-10.171-11.444V35.822c3.684 0.649 6.497 3.853 6.497 7.72 0 1.014 0.822 1.837 1.837 1.837 1.015 0 1.837-0.822 1.837-1.837 0-5.897-4.452-10.767-10.171-11.444v-3.336c0-1.014-0.822-1.837-1.837-1.837-1.015 0-1.837 0.822-1.837 1.837v3.482c-5.254 1.074-9.218 5.732-9.218 11.298 0 5.566 3.965 10.223 9.218 11.297v15.562C51.839 69.407 49.493 66.454 49.493 62.932zM65.209 62.932c0 3.866-2.813 7.071-6.497 7.719V55.21C62.396 55.859 65.209 59.064 65.209 62.932zM49.493 43.542c0-3.523 2.345-6.476 5.545-7.47v14.94C51.839 50.017 49.493 47.064 49.493 43.542z" fill="#4b91f1" data-fill-palette-color="accent"/><path d="M99.863 40.453L87.628 10.514c-0.282-0.691-0.954-1.142-1.701-1.142h-9.098V1.837C76.829 0.822 76.007 0 74.992 0h-7.028c-1.015 0-1.837 0.822-1.837 1.837v7.536H30.214c-0.745 0-1.417 0.451-1.7 1.141L17.32 37.849c-0.385 0.939 0.065 2.012 1.004 2.396 0.94 0.385 2.012-0.065 2.396-1.004l10.727-26.195h34.681v5.452c0 1.014 0.822 1.837 1.837 1.837h7.028c1.015 0 1.837-0.822 1.837-1.837v-5.452h7.864l11.769 28.797c0.291 0.711 0.978 1.143 1.701 1.143 0.231 0 0.468-0.045 0.694-0.137C99.797 42.464 100.247 41.392 99.863 40.453zM73.155 16.662h-3.354V3.674h3.354V16.662z" fill="#4b91f1" data-fill-palette-color="accent"/></g></svg></g></svg></g></svg></g><defs/></svg><rect width="395.52" height="63.7369990962125" fill="none" stroke="none" visibility="hidden"/></g></svg></g></svg>